<?xml version="1.0" standalone="no"?>
<!DOCTYPE svg PUBLIC "-//W3C//DTD SVG 20010904//EN"
 "http://www.w3.org/TR/2001/REC-SVG-20010904/DTD/svg10.dtd">
<svg version="1.0" xmlns="http://www.w3.org/2000/svg"
 width="128.000000pt" height="128.000000pt" viewBox="0 0 128.000000 128.000000"
 preserveAspectRatio="xMidYMid meet">
<metadata>
Created by potrace 1.11, written by Peter Selinger 2001-2013
</metadata>
<g transform="translate(0.000000,128.000000) scale(0.100000,-0.100000)"
fill="#000000" stroke="none">
<path d="M495 975 c-107 -162 -195 -297 -195 -299 0 -5 113 66 258 161 31 21
52 42 52 53 0 20 79 360 86 372 3 5 3 8 -1 8 -3 0 -93 -133 -200 -295z"/>
<path d="M530 789 c-131 -83 -220 -142 -220 -148 0 -5 261 -180 283 -189 4 -2
7 3 7 11 0 8 -56 51 -125 97 l-125 83 125 79 c69 44 125 86 125 94 0 8 -1 14
-2 14 -2 0 -32 -19 -68 -41z"/>
<path d="M680 816 c0 -9 27 -33 60 -53 33 -21 90 -56 125 -79 l65 -41 -125
-82 c-69 -46 -125 -90 -125 -98 0 -9 5 -11 13 -7 50 30 267 176 271 183 3 5
-49 44 -117 87 -67 42 -132 84 -144 92 -21 13 -23 13 -23 -2z"/>
<path d="M518 718 c-64 -39 -115 -75 -113 -79 3 -3 56 -39 119 -78 l114 -71
109 66 c59 37 114 72 120 78 10 9 -14 28 -100 81 -61 39 -116 71 -122 73 -5 1
-63 -30 -127 -70z"/>
<path d="M835 519 c-82 -55 -150 -101 -152 -102 -1 -2 -21 -88 -43 -192 -23
-105 -43 -197 -46 -205 -8 -24 8 -2 68 90 257 397 329 510 326 509 -2 0 -70
-45 -153 -100z"/>
</g>
</svg>
